<svg width="124" height="208" viewBox="0 0 124 208" fill="none" xmlns="http://www.w3.org/2000/svg">
<path fill-rule="evenodd" clip-rule="evenodd" d="M75.4088 136.968C75.9308 136.339 76.569 135.787 77.3156 135.349C79.8484 133.863 83.0368 134.106 85.3204 135.93L89.1298 138.972C93.6648 143.311 97.5491 148.298 100.661 153.777L102.393 156.825L104.879 162.145C106.326 165.242 106.018 168.899 104.071 171.727L103.818 172.094C102.361 174.21 100.053 175.564 97.5221 175.788C93.9695 176.103 90.6141 174.148 89.1112 170.888L87.1354 166.601C86.2698 164.723 85.3589 162.868 84.4033 161.038C84.9282 165.018 85.1508 168.869 85.1888 172.215L87.5115 197.254C87.5686 197.869 87.7216 198.472 87.9652 199.04C89.6395 202.944 86.7757 207.288 82.5276 207.288H73.9545C69.4764 207.288 66.0367 203.322 66.6704 198.889C66.7376 198.419 66.7591 197.944 66.7348 197.47L66.2495 188.013C66.1945 186.941 65.3534 186.072 64.2819 186.013C63.2244 185.954 62.1345 185.918 61.0143 185.918C59.8944 185.918 58.805 185.954 57.7479 186.013C56.6764 186.072 55.8352 186.941 55.7802 188.013L55.2949 197.47C55.2706 197.944 55.2922 198.419 55.3593 198.889C55.993 203.322 52.5533 207.288 48.0752 207.288H39.5021C35.254 207.288 32.3902 202.944 34.0646 199.04C34.3081 198.472 34.4612 197.869 34.5182 197.254L36.8396 172.229C36.8789 168.723 37.1208 164.662 37.7011 160.477C36.6378 162.489 35.6285 164.531 34.6744 166.601L32.6985 170.887C31.1957 174.148 27.8402 176.103 24.2876 175.788C21.7566 175.564 19.4483 174.21 17.9917 172.094L17.7386 171.726C15.7916 168.899 15.4832 165.242 16.9306 162.145L19.4167 156.825L21.1485 153.777C24.2607 148.298 28.145 143.312 32.68 138.972L36.4895 135.93C38.7731 134.106 41.9615 133.863 44.4944 135.349C45.2922 135.817 45.9662 136.415 46.507 137.099C50.0161 132.997 54.7276 130.356 61.0143 130.356C67.2338 130.356 71.9117 132.941 75.4088 136.968Z" fill="url(#paint0_radial_7112_23724)"/>
<path d="M78.6396 161.419C78.6396 171.831 70.6989 177.37 60.9035 177.37C51.1082 177.37 43.1675 171.831 43.1675 161.419C43.1675 148.108 51.1082 136.768 60.9035 136.768C70.6989 136.768 78.6396 148.108 78.6396 161.419Z" fill="white"/>
<path d="M30.0334 18.0201C28.8373 8.45156 36.2982 0 45.9412 0L-nan -nanL45.9412 0C54.7952 0 61.9727 7.17758 61.9727 16.0316V51.2878H34.1919L30.0334 18.0201Z" fill="#C6594A"/>
<path d="M123.946 87.5777C123.946 120.56 96.1994 141.041 61.9728 141.041C27.7461 141.041 0 120.56 0 87.5777C0 54.5957 27.7461 27.7808 61.9728 27.7808C96.1994 27.7808 123.946 54.5957 123.946 87.5777Z" fill="url(#paint1_radial_7112_23724)"/>
<path d="M104.713 103.682C104.713 121.995 85.0997 134.63 60.905 134.63C36.7103 134.63 17.0967 121.995 17.0967 103.682C17.0967 83.1829 36.7103 70.5205 60.905 70.5205C85.0997 70.5205 104.713 83.1829 104.713 103.682Z" fill="#FFF4EE"/>
<mask id="mask0_7112_23724" style="mask-type:alpha" maskUnits="userSpaceOnUse" x="8" y="108" width="106" height="29">
<path d="M40.6037 122.877C40.6037 130.548 33.428 136.767 24.5763 136.767C15.7246 136.767 8.54883 130.548 8.54883 122.877C8.54883 115.205 15.7246 108.986 24.5763 108.986C33.428 108.986 40.6037 115.205 40.6037 122.877Z" fill="#FFB6AC"/>
<path d="M113.261 122.877C113.261 130.548 106.086 136.767 97.234 136.767C88.3823 136.767 81.2065 130.548 81.2065 122.877C81.2065 115.205 88.3823 108.986 97.234 108.986C106.086 108.986 113.261 115.205 113.261 122.877Z" fill="#FFB6AC"/>
</mask>
<g mask="url(#mask0_7112_23724)">
<path d="M104.713 103.683C104.713 121.995 85.0997 134.63 60.905 134.63C36.7103 134.63 17.0967 121.995 17.0967 103.683C17.0967 83.1834 36.7103 66.2466 60.905 66.2466C85.0997 66.2466 104.713 83.1834 104.713 103.683Z" fill="#FFB6AC"/>
</g>
<path d="M61.9722 15.599C61.9722 6.98393 68.9561 0 77.5712 0L-nan -nanL77.5712 0C87.2707 0 94.6185 8.75803 92.9329 18.3099L89.7531 36.3289L61.9722 38.4659V15.599Z" fill="#C85A4B"/>
<path fill-rule="evenodd" clip-rule="evenodd" d="M36.6959 97.4192C36.3397 98.327 37.0044 99.2343 37.9413 99.5048C39.9491 100.084 39.9491 102.929 37.9413 103.509L37.8535 103.534C36.9504 103.795 36.3286 104.622 36.3286 105.562V105.781C36.3286 108.731 38.7205 111.123 41.6711 111.123C44.6217 111.123 47.0136 108.731 47.0136 105.781V99.3698C47.0136 96.4193 44.6217 94.0273 41.6711 94.0273C39.4089 94.0273 37.4751 95.4334 36.6959 97.4192Z" fill="#3E3E3E"/>
<path fill-rule="evenodd" clip-rule="evenodd" d="M75.1622 97.4197C74.806 98.3275 75.4707 99.2348 76.4076 99.5053C78.4154 100.085 78.4154 102.93 76.4076 103.509L76.3198 103.535C75.4167 103.795 74.7949 104.622 74.7949 105.562V105.781C74.7949 108.732 77.1868 111.124 80.1374 111.124C83.088 111.124 85.4799 108.732 85.4799 105.781V99.3703C85.4799 96.4197 83.088 94.0278 80.1374 94.0278C77.8752 94.0278 75.9414 95.4339 75.1622 97.4197Z" fill="#3E3E3E"/>
<path fill-rule="evenodd" clip-rule="evenodd" d="M32.7856 49.8547C33.5773 51.4381 32.9355 53.3636 31.352 54.1553C27.6984 55.9821 23.9274 59.7531 22.1006 63.4067C21.3089 64.9902 19.3834 65.632 17.8 64.8403C16.2166 64.0485 15.5747 62.1231 16.3665 60.5396C18.8136 55.6453 23.5906 50.8683 28.485 48.4211C30.0684 47.6294 31.9938 48.2712 32.7856 49.8547Z" fill="#FFB6AC"/>
<path d="M62.0433 112.543C61.3474 112.982 60.4616 112.982 59.7656 112.543L56.9895 110.795C55.1761 109.653 55.9853 106.85 58.1284 106.85L63.6805 106.85C65.8236 106.85 66.6328 109.653 64.8194 110.795L62.0433 112.543Z" fill="#E27566"/>
<path fill-rule="evenodd" clip-rule="evenodd" d="M82.6392 84.7628C83.0351 85.5545 82.7142 86.5172 81.9225 86.9131L77.6485 89.0501C76.8568 89.4459 75.894 89.125 75.4982 88.3333C75.1023 87.5416 75.4232 86.5789 76.2149 86.183L80.4889 84.046C81.2806 83.6502 82.2434 83.9711 82.6392 84.7628Z" fill="#3E3E3E"/>
<path d="M55.561 117.535H66.246V121.809C66.246 122.989 65.2892 123.946 64.109 123.946H57.698C56.5178 123.946 55.561 122.989 55.561 121.809V117.535Z" fill="white"/>
<path fill-rule="evenodd" clip-rule="evenodd" d="M65.1775 118.603H56.6295V121.809C56.6295 122.399 57.1079 122.877 57.698 122.877H64.109C64.6991 122.877 65.1775 122.399 65.1775 121.809V118.603ZM55.561 117.535V121.809C55.561 122.989 56.5178 123.946 57.698 123.946H64.109C65.2892 123.946 66.246 122.989 66.246 121.809V117.535H55.561Z" fill="#D1D1D1"/>
<path fill-rule="evenodd" clip-rule="evenodd" d="M53.9981 118.655C53.3986 118.415 52.7747 118.082 52.2915 117.599C51.6656 116.973 51.6656 115.958 52.2915 115.333C52.9174 114.707 53.9322 114.707 54.5581 115.333C54.609 115.383 54.7863 115.518 55.1884 115.679C55.5719 115.832 56.0726 115.975 56.6771 116.096C57.8856 116.337 59.3795 116.465 60.904 116.465C62.4286 116.465 63.9226 116.338 65.1311 116.096C65.7356 115.975 66.2364 115.832 66.6199 115.679C67.022 115.518 67.1995 115.384 67.2505 115.333C67.8764 114.707 68.8912 114.707 69.5171 115.333C70.143 115.958 70.143 116.973 69.5171 117.599C69.0339 118.082 68.4099 118.415 67.8102 118.655C67.1921 118.902 66.4908 119.093 65.7595 119.239C64.2967 119.532 62.585 119.671 60.9039 119.671C59.2228 119.671 57.5112 119.532 56.0485 119.239C55.3174 119.093 54.6162 118.902 53.9981 118.655Z" fill="#3E3E3E"/>
<path d="M17.0965 71.5893C17.0965 73.3596 15.6614 74.7948 13.891 74.7948C12.1207 74.7948 10.6855 73.3596 10.6855 71.5893C10.6855 69.8189 12.1207 68.3838 13.891 68.3838C15.6614 68.3838 17.0965 69.8189 17.0965 71.5893Z" fill="#FFB6AC"/>
<path fill-rule="evenodd" clip-rule="evenodd" d="M30.1097 32.0542C29.5059 33.7562 30.325 35.939 32.5598 36.3378L40.8596 37.8189C42.0387 38.0293 42.9178 38.8399 43.2975 39.8476C43.9963 38.0044 42.8596 35.9207 40.8596 35.5639L32.5598 34.0828C31.2741 33.8534 30.4569 33.0334 30.1097 32.0542ZM39.378 49.7941C38.3866 52.3822 41.0418 55.0208 43.6889 53.841L60.9108 46.1652C61.7413 45.7951 62.6901 45.7951 63.5207 46.1652L80.7424 53.841C83.3896 55.0208 86.0448 52.3822 85.0534 49.7941C84.4395 51.3739 82.589 52.409 80.7424 51.586L63.5207 43.9102C62.6901 43.54 61.7413 43.54 60.9108 43.9102L43.6889 51.5859C41.8424 52.4089 39.9919 51.3739 39.378 49.7941ZM81.1339 39.8476C80.4351 38.0044 81.5719 35.9207 83.5718 35.5639L91.8715 34.0828C93.1573 33.8534 93.9745 33.0334 94.3216 32.0542C94.9255 33.7562 94.1064 35.939 91.8715 36.3378L83.5718 37.8189C82.3927 38.0293 81.5137 38.8399 81.1339 39.8476Z" fill="#65A677"/>
<path fill-rule="evenodd" clip-rule="evenodd" d="M60.3373 6.41504C59.2411 6.34713 58.2531 7.07261 57.9896 8.13887C56.7687 13.0808 56.4858 18.1997 57.1469 23.2311C55.0836 23.4931 53.0357 23.9158 51.0219 24.499L32.5394 27.9211C29.032 28.5705 29.0483 33.602 32.5598 34.2286L40.8596 35.7097C42.9841 36.0888 44.1346 38.4166 43.1454 40.3346L39.5351 47.335C38.1466 50.0272 40.9222 52.9653 43.6889 51.7321L60.9108 44.0563C61.7413 43.6861 62.6901 43.6861 63.5207 44.0563L80.7424 51.7322C83.5091 52.9653 86.2847 50.0272 84.8963 47.335L81.286 40.3346C80.2968 38.4166 81.4473 36.0888 83.5718 35.7097L91.8715 34.2286C95.3831 33.602 95.3994 28.5705 91.892 27.9211L73.4094 24.499C71.8219 24.0392 70.2132 23.6792 68.5924 23.4191L68.5811 22.0111C68.5542 18.6698 68.9095 15.3364 69.64 12.0759L70.1135 9.96286C70.4546 8.44022 69.3529 6.97359 67.7955 6.8771L60.3373 6.41504Z" fill="#83C696"/>
<defs>
<radialGradient id="paint0_radial_7112_23724" cx="0" cy="0" r="1" gradientUnits="userSpaceOnUse" gradientTransform="translate(60.9048 168.822) rotate(90) scale(38.4659 44.8775)">
<stop stop-color="#E27566"/>
<stop offset="1" stop-color="#C85A4B"/>
</radialGradient>
<radialGradient id="paint1_radial_7112_23724" cx="0" cy="0" r="1" gradientUnits="userSpaceOnUse" gradientTransform="translate(54.4933 78.0001) rotate(43.727) scale(68.0155 74.432)">
<stop offset="0.596666" stop-color="#E27566"/>
<stop offset="1" stop-color="#C5594A"/>
</radialGradient>
</defs>
</svg>
